<?xml version="1.0" encoding="UTF-8" standalone="no" ?>
<!DOCTYPE svg PUBLIC "-//W3C//DTD SVG 1.1//EN" "http://www.w3.org/Graphics/SVG/1.1/DTD/svg11.dtd">
<svg xmlns="http://www.w3.org/2000/svg" xmlns:xlink="http://www.w3.org/1999/xlink" version="1.1" width="512" height="512.0000100000001" viewBox="-857.0735703576784 -139.1028870303931 512 512.0000100000001" xml:space="preserve">
<desc>Created with Fabric.js 5.3.0</desc>
<defs>
</defs>
<g transform="matrix(0.7511002497 0 0 0.7511002537 -601.0735703577 116.8971179696)" id="1SXUsbzQetSB-718wZa54"  >
<path style="stroke: rgb(227,43,175); stroke-width: 0; stroke-dasharray: none; stroke-linecap: butt; stroke-dashoffset: 0; stroke-linejoin: miter; stroke-miterlimit: 4; fill: rgb(169,97,33); fill-rule: nonzero; opacity: 1;"  transform=" translate(0, 0)" d="M -340.83333 -196.23 C -340.83333 -276.09222 -276.09221 -340.83333 -196.23 -340.83333 L 196.22999000000002 -340.83333 L 196.22999000000002 -340.83333 C 276.09221 -340.83333 340.83332 -276.09221 340.83332 -196.23 L 340.83332 196.23 L 340.83332 196.23 C 340.83332 276.09222 276.09220000000005 340.83333 196.22999000000002 340.83333 L -196.23 340.83333 L -196.23 340.83333 C -276.09222 340.83333 -340.83333 276.09221 -340.83333 196.23 z" stroke-linecap="round" />
</g>
<g transform="matrix(0.2390655083 0 0 0.2390655083 -601.0735703577 116.8971179696)" id="i6JaasnXfLSk6qFVimYlB"  >
<g style="opacity: 0.86;"   >
		<g transform="matrix(0.1333333333 0 0 -0.1333333333 -189.3082638265 -500.6520822516)" id="T7rHfL96upuvcBS79tcIt"  >
<path style="stroke: none; stroke-width: 1; stroke-dasharray: none; stroke-linecap: butt; stroke-dashoffset: 0; stroke-linejoin: miter; stroke-miterlimit: 4; fill: rgb(0,0,0); fill-rule: nonzero; opacity: 1;"  transform=" translate(-4980.1880213015, -10154.8906168869)" d="M 4615 12476 C 4448 12437 4322 12364 4179 12221 C 4063 12106 3980 11989 3900 11830 C 3423 10876 3584 9302 4253 8400 C 4344 8277 4502 8115 4610 8034 C 4964 7767 5362 7753 5681 7996 C 6008 8246 6232 8728 6317 9365 C 6338 9529 6342 10037 6322 10205 C 6240 10907 6031 11488 5704 11927 C 5622 12036 5461 12200 5360 12277 C 5266 12348 5088 12440 4995 12465 C 4912 12488 4693 12494 4615 12476 z" stroke-linecap="round" />
</g>
		<g transform="matrix(0.1333333333 0 0 -0.1333333333 261.3616446735 -478.8712749161)" id="5E7QoONYwheXu_fxssOEr"  >
<path style="stroke: none; stroke-width: 1; stroke-dasharray: none; stroke-linecap: butt; stroke-dashoffset: 0; stroke-linejoin: miter; stroke-miterlimit: 4; fill: rgb(0,0,0); fill-rule: nonzero; opacity: 1;"  transform=" translate(-8360.2123350512, -9991.5345618705)" d="M 8546 12274 C 8235 12213 7910 11975 7641 11613 C 7295 11148 7061 10533 6973 9855 C 6945 9639 6948 9157 6978 8961 C 7048 8514 7197 8172 7420 7950 C 7611 7758 7851 7669 8095 7698 C 8676 7770 9249 8404 9555 9314 C 9809 10069 9836 10864 9628 11470 C 9425 12061 9013 12367 8546 12274 z" stroke-linecap="round" />
</g>
		<g transform="matrix(0.1333333333 0 0 -0.1333333333 -509.000454313 -76.8987748544)" id="2PJJecrNfrEzsf5uBkQRz"  >
<path style="stroke: none; stroke-width: 1; stroke-dasharray: none; stroke-linecap: butt; stroke-dashoffset: 0; stroke-linejoin: miter; stroke-miterlimit: 4; fill: rgb(0,0,0); fill-rule: nonzero; opacity: 1;"  transform=" translate(-2582.4965926529, -6976.7408114078)" d="M 2095 9010 C 1686 8945 1378 8615 1239 8091 C 1160 7790 1149 7375 1211 7010 C 1354 6160 1846 5379 2428 5077 C 2726 4923 3023 4896 3278 5002 C 3654 5158 3901 5562 3982 6155 C 3998 6274 3998 6627 3981 6765 C 3851 7867 3172 8834 2417 8995 C 2328 9014 2170 9021 2095 9010 z" stroke-linecap="round" />
</g>
		<g transform="matrix(0.1333333333 0 0 -0.1333333333 531.1890641428 27.8438233625)" id="FpzC27L6N9VRmx8luf3KF"  >
<path style="stroke: none; stroke-width: 1; stroke-dasharray: none; stroke-linecap: butt; stroke-dashoffset: 0; stroke-linejoin: miter; stroke-miterlimit: 4; fill: rgb(0,0,0); fill-rule: nonzero; opacity: 1;"  transform=" translate(-10383.9179810708, -6191.1713247814)" d="M 10570 8200 C 10210 8123 9857 7870 9564 7478 C 9246 7052 9032 6496 8970 5936 C 8954 5790 8957 5476 8975 5335 C 9097 4387 9741 3932 10470 4276 C 10861 4461 11215 4842 11468 5349 C 11948 6309 11917 7434 11395 7955 C 11175 8175 10872 8265 10570 8200 z" stroke-linecap="round" />
</g>
		<g transform="matrix(0.1333333333 0 0 -0.1333333333 -14.7175242317 375.1624982548)" id="lJ8fFK07S_vBYKHthEjP8"  >
<path style="stroke: none; stroke-width: 1; stroke-dasharray: none; stroke-linecap: butt; stroke-dashoffset: 0; stroke-linejoin: miter; stroke-miterlimit: 4; fill: rgb(0,0,0); fill-rule: nonzero; opacity: 1;"  transform=" translate(-6289.6185682622, -3586.281263089)" d="M 6225 6421 C 5563 6303 4728 5608 3988 4560 C 3409 3739 3001 2855 2879 2155 C 2850 1987 2847 1687 2873 1572 C 2914 1393 2983 1275 3117 1150 C 3341 943 3610 821 3947 774 C 4122 750 4476 759 4701 793 C 5002 840 5256 901 5825 1065 C 6375 1223 6529 1256 6681 1246 C 6874 1233 7019 1186 7435 1003 C 7733 872 7899 810 8041 775 C 8571 647 9017 814 9476 1312 C 9613 1460 9655 1532 9698 1689 C 9722 1779 9724 1799 9724 2010 C 9724 2201 9721 2255 9701 2365 C 9583 3032 9232 3838 8725 4605 C 8122 5517 7414 6174 6823 6369 C 6608 6440 6425 6456 6225 6421 z" stroke-linecap="round" />
</g>
</g>
</g>
</svg>